<?xml version="1.0" encoding="utf-8"?><svg xmlns="http://www.w3.org/2000/svg" xmlns:xlink="http://www.w3.org/1999/xlink" width="1920" height="937" preserveAspectRatio="xMidYMid" viewBox="0 0 1920 937" style="z-index:1;margin-right:-2px;display:block;background-repeat-y:initial;background-repeat-x:initial;background-color:rgb(255, 255, 255);animation-play-state:paused" ><g transform="translate(960,468.5) scale(1,1) translate(-960,-468.5)" style="transform:matrix(1, 0, 0, 1, 0, 0);animation-play-state:paused" ><path id="path0" d="M 1571.2262687124048 927.4048745513197
c 0 34.668592849149 -8.48274080351518 9.958000073691734 -18.440740877206913 9.958000073691734
S 1534.344786957991 962.0734674004688 1534.344786957991 927.4048745513197
s 8.48274080351518 -9.958000073691734 18.440740877206913 -9.958000073691734
S 1571.2262687124048 892.7362817021707 1571.2262687124048 927.4048745513197
z" fill="none" stroke="none" style="animation-play-state:paused" ></path>


<circle cx="0" cy="0" r="7.331108377041981" fill="#9df871" transform="translate(1564.0050048828125 944.1871948242188)" style="animation-play-state:paused" ></circle>
<path id="path1" d="M 529.8461633203287 555.5919115864014
c 0 32.14865849399348 -7.866161120870744 9.234189141891743 -17.100350262762486 9.234189141891743
S 495.64546279480373 587.7405700803948 495.64546279480373 555.5919115864014
s 7.866161120870744 -9.234189141891743 17.100350262762486 -9.234189141891743
S 529.8461633203287 523.4432530924079 529.8461633203287 555.5919115864014
z" fill="none" stroke="none" style="animation-play-state:paused" ></path>


<circle cx="0" cy="0" r="6.1827449915294475" fill="#ff708e" transform="translate(518.0399169921875 544.2531127929688)" style="animation-play-state:paused" ></circle>
<path id="path2" d="M 1691.3017283877261 481.9489278847441
c 0 34.78325493768721 -8.510796420923466 9.990934928910157 -18.501731349833623 9.990934928910157
S 1654.298265688059 516.7321828224312 1654.298265688059 481.9489278847441
s 8.510796420923466 -9.990934928910157 18.501731349833623 -9.990934928910157
S 1691.3017283877261 447.16567294705686 1691.3017283877261 481.9489278847441
z" fill="none" stroke="none" style="animation-play-state:paused" ></path>


<circle cx="0" cy="0" r="4.6928579341519" fill="#9df871" transform="translate(1659.371826171875 500.2026062011719)" style="animation-play-state:paused" ></circle>
<path id="path3" d="M 445.56303267410163 813.6657389506003
c 0 26.293272197129426 -6.4334602184465615 7.55232286513292 -13.98578308357948 7.55232286513292
S 417.5914665069427 839.9590111477297 417.5914665069427 813.6657389506003
s 6.4334602184465615 -7.55232286513292 13.98578308357948 -7.55232286513292
S 445.56303267410163 787.3724667534708 445.56303267410163 813.6657389506003
z" fill="none" stroke="none" style="animation-play-state:paused" ></path>


<circle cx="0" cy="0" r="6.225847726992878" fill="#ff708e" transform="translate(420.30352783203125 799.653076171875)" style="animation-play-state:paused" ></circle>
<path id="path4" d="M 1674.63292544039 607.8005498162821
c 0 29.24141136464692 -7.1548134190093515 8.39912879622837 -15.553942215237722 8.39912879622837
S 1643.5250410099147 637.041961180929 1643.5250410099147 607.8005498162821
s 7.1548134190093515 -8.39912879622837 15.553942215237722 -8.39912879622837
S 1674.63292544039 578.5591384516352 1674.63292544039 607.8005498162821
z" fill="none" stroke="none" style="animation-play-state:paused" ></path>


<circle cx="0" cy="0" r="7.214011318636291" fill="#51cacc" transform="translate(1664.1038818359375 597.3350830078125)" style="animation-play-state:paused" ></circle>
<path id="path5" d="M 1292.97944332677 354.97543225762615
c 0 30.555643340455493 -7.476380817345492 8.776620959492535 -16.253001776838026 8.776620959492535
S 1260.4734397730938 385.53107559808166 1260.4734397730938 354.97543225762615
s 7.476380817345492 -8.776620959492535 16.253001776838026 -8.776620959492535
S 1292.97944332677 324.41978891717065 1292.97944332677 354.97543225762615
z" fill="none" stroke="none" style="animation-play-state:paused" ></path>


<circle cx="0" cy="0" r="5.434062943563456" fill="#9df871" transform="translate(1292.8238525390625 348.32647705078125)" style="animation-play-state:paused" ></circle>
<path id="path6" d="M 1176.8674041139773 540.2574080773321
c 0 23.302932224686995 -5.7017812890191575 6.693395426239882 -12.39517671525904 6.693395426239882
S 1152.077050683459 563.5603403020191 1152.077050683459 540.2574080773321
s 5.7017812890191575 -6.693395426239882 12.39517671525904 -6.693395426239882
S 1176.8674041139773 516.9544758526451 1176.8674041139773 540.2574080773321
z" fill="none" stroke="none" style="animation-play-state:paused" ></path>


<circle cx="0" cy="0" r="5.731406477509512" fill="#ff708e" transform="translate(1169.2215576171875 549.1727905273438)" style="animation-play-state:paused" ></circle>
<path id="path7" d="M 694.6228696599146 657.4128828538106
c 0 24.56363706776207 -6.010251622963058 7.055512774782722 -13.065764397745781 7.055512774782722
S 668.4913408644231 681.9765199215727 668.4913408644231 657.4128828538106
s 6.010251622963058 -7.055512774782722 13.065764397745781 -7.055512774782722
S 694.6228696599146 632.8492457860485 694.6228696599146 657.4128828538106
z" fill="none" stroke="none" style="animation-play-state:paused" ></path>


<circle cx="0" cy="0" r="4.72256936036463" fill="#ff708e" transform="translate(694.4324340820312 663.7874145507812)" style="animation-play-state:paused" ></circle>
<path id="path8" d="M 242.27588331762533 563.3980891188561
c 0 22.82382542800362 -5.584553030256203 6.555779644213805 -12.14033267447001 6.555779644213805
S 217.9952179686853 586.2219145468597 217.9952179686853 563.3980891188561
s 5.584553030256203 -6.555779644213805 12.14033267447001 -6.555779644213805
S 242.27588331762533 540.5742636908525 242.27588331762533 563.3980891188561
z" fill="none" stroke="none" style="animation-play-state:paused" ></path>


<circle cx="0" cy="0" r="4.398963222799879" fill="#e0ff77" transform="translate(218.644775390625 572.9177856445312)" style="animation-play-state:paused" ></circle>
<path id="path9" d="M 1516.6528264077758 332.36264554537854
c 0 33.06570932147799 -8.090545897808441 9.497597358296868 -17.58814325610531 9.497597358296868
S 1481.4765398955653 365.4283548668565 1481.4765398955653 332.36264554537854
s 8.090545897808441 -9.497597358296868 17.58814325610531 -9.497597358296868
S 1516.6528264077758 299.29693622390056 1516.6528264077758 332.36264554537854
z" fill="none" stroke="none" style="animation-play-state:paused" ></path>


<circle cx="0" cy="0" r="5.640572614892976" fill="#de9dd6" transform="translate(1481.841552734375 322.4747619628906)" style="animation-play-state:paused" ></circle>
<path id="path10" d="M 813.2125174563697 711.8625838497305
c 0 20.46601014868142 -5.0076407810603465 5.878534829940408 -10.886175611000755 5.878534829940408
S 791.4401662343681 732.328593998412 791.4401662343681 711.8625838497305
s 5.0076407810603465 -5.878534829940408 10.886175611000755 -5.878534829940408
S 813.2125174563697 691.3965737010491 813.2125174563697 711.8625838497305
z" fill="none" stroke="none" style="animation-play-state:paused" ></path>


<circle cx="0" cy="0" r="7.4184005990586765" fill="#9df871" transform="translate(802.2639770507812 705.9834594726562)" style="animation-play-state:paused" ></circle>
<path id="path11" d="M 736.5916101241559 28.153508116393756
c 0 29.836485706566062 -7.300416715436376 8.570054405077487 -15.870471120513862 8.570054405077487
S 704.850667883128 57.98999382295982 704.850667883128 28.153508116393756
s 7.300416715436376 -8.570054405077487 15.870471120513862 -8.570054405077487
S 736.5916101241559 -1.6829775901723067 736.5916101241559 28.153508116393756
z" fill="none" stroke="none" style="animation-play-state:paused" ></path>


<circle cx="0" cy="0" r="6.636923276710722" fill="#ff708e" transform="translate(710.2276611328125 43.22043991088867)" style="animation-play-state:paused" ></circle>
<path id="path12" d="M 1434.5231622768442 708.9891635643085
c 0 36.841830885335746 -9.01449053577364 10.582228020256013 -19.59671855602965 10.582228020256013
S 1395.329725164785 745.8309944496442 1395.329725164785 708.9891635643085
s 9.01449053577364 -10.582228020256013 19.59671855602965 -10.582228020256013
S 1434.5231622768442 672.1473326789727 1434.5231622768442 708.9891635643085
z" fill="none" stroke="none" style="animation-play-state:paused" ></path>


<circle cx="0" cy="0" r="6.464394981404353" fill="#de9dd6" transform="translate(1409.019775390625 721.8695678710938)" style="animation-play-state:paused" ></circle>
<path id="path13" d="M 1201.1057437203663 530.3022418135059
c 0 33.12908540890943 -8.106052812818264 9.515801128091008 -17.621853940909272 9.515801128091008
S 1165.8620358385479 563.4313272224153 1165.8620358385479 530.3022418135059
s 8.106052812818264 -9.515801128091008 17.621853940909272 -9.515801128091008
S 1201.1057437203663 497.1731564045965 1201.1057437203663 530.3022418135059
z" fill="none" stroke="none" style="animation-play-state:paused" ></path>


<circle cx="0" cy="0" r="4.823104142239322" fill="#51cacc" transform="translate(1166.278076171875 519.89208984375)" style="animation-play-state:paused" ></circle>
<path id="path14" d="M 459.40368172942067 62.29900306346825
c 0 36.625582401589305 -8.961578672729297 10.520114094073524 -19.48169276680282 10.520114094073524
S 420.440296195815 98.92458546505756 420.440296195815 62.29900306346825
s 8.961578672729297 -10.520114094073524 19.48169276680282 -10.520114094073524
S 459.40368172942067 25.673420661878943 459.40368172942067 62.29900306346825
z" fill="none" stroke="none" style="animation-play-state:paused" ></path>


<circle cx="0" cy="0" r="4.690104843049801" fill="#ff708e" transform="translate(432.50518798828125 76.27333068847656)" style="animation-play-state:paused" ></circle>
<path id="path15" d="M 1508.6555121887804 632.4500293012164
c 0 22.380768005847113 -5.476145363132804 6.4285184697645965 -11.9046638328974 6.4285184697645965
S 1484.8461845229858 654.8307973070636 1484.8461845229858 632.4500293012164
s 5.476145363132804 -6.4285184697645965 11.9046638328974 -6.4285184697645965
S 1508.6555121887804 610.0692612953693 1508.6555121887804 632.4500293012164
z" fill="none" stroke="none" style="animation-play-state:paused" ></path>


<circle cx="0" cy="0" r="4.4645110090541476" fill="#9df871" transform="translate(1492.9088134765625 624.4429321289062)" style="animation-play-state:paused" ></circle>
<path id="path16" d="M 1677.6844351562372 159.2392677526977
c 0 28.55341698900339 -6.986474369649765 8.201513390458421 -15.187987760108186 8.201513390458421
S 1647.3084596360209 187.7926847417011 1647.3084596360209 159.2392677526977
s 6.986474369649765 -8.201513390458421 15.187987760108186 -8.201513390458421
S 1677.6844351562372 130.68585076369433 1677.6844351562372 159.2392677526977
z" fill="none" stroke="none" style="animation-play-state:paused" ></path>


<circle cx="0" cy="0" r="5.429590814400366" fill="#ff708e" transform="translate(1677.4735107421875 151.97088623046875)" style="animation-play-state:paused" ></circle>
<path id="path17" d="M 233.15283377957786 930.9818331213528
c 0 27.336315096393847 -6.688672842734664 7.851920293645041 -14.540593136379705 7.851920293645041
S 204.07164750681846 958.3181482177466 204.07164750681846 930.9818331213528
s 6.688672842734664 -7.851920293645041 14.540593136379705 -7.851920293645041
S 233.15283377957786 903.645518024959 233.15283377957786 930.9818331213528
z" fill="none" stroke="none" style="animation-play-state:paused" ></path>


<circle cx="0" cy="0" r="5.38103591036683" fill="#9df871" transform="translate(212.70916748046875 920.251708984375)" style="animation-play-state:paused" ></circle>
<path id="path18" d="M 1405.7699117991335 251.23905458564735
c 0 36.1187642715057 -8.837569981325862 10.37453867373036 -19.21210865505622 10.37453867373036
S 1367.345694489021 287.35781885715306 1367.345694489021 251.23905458564735
s 8.837569981325862 -10.37453867373036 19.21210865505622 -10.37453867373036
S 1405.7699117991335 215.12029031414164 1405.7699117991335 251.23905458564735
z" fill="none" stroke="none" style="animation-play-state:paused" ></path>


<circle cx="0" cy="0" r="7.383922574165864" fill="#de9dd6" transform="translate(1374.426513671875 233.41146850585938)" style="animation-play-state:paused" ></circle>
<path id="path19" d="M 1380.6278964706776 125.07985575476059
c 0 36.82892129927381 -9.011331807269123 10.578519947663754 -19.589851754932877 10.578519947663754
S 1341.4481929608119 161.9087770540344 1341.4481929608119 125.07985575476059
s 9.011331807269123 -10.578519947663754 19.589851754932877 -10.578519947663754
S 1380.6278964706776 88.25093445548677 1380.6278964706776 125.07985575476059
z" fill="none" stroke="none" style="animation-play-state:paused" ></path>


<circle cx="0" cy="0" r="4.716276817333527" fill="#ff708e" transform="translate(1342.3922119140625 110.21044158935547)" style="animation-play-state:paused" ></circle>
<path id="path20" d="M 828.4062353960883 317.63975106177116
c 0 32.87901623717999 -8.044865675054679 9.443972748977231 -17.48883842403191 9.443972748977231
S 793.4285585480245 350.51876729895116 793.4285585480245 317.63975106177116
s 8.044865675054679 -9.443972748977231 17.48883842403191 -9.443972748977231
S 828.4062353960883 284.76073482459117 828.4062353960883 317.63975106177116
z" fill="none" stroke="none" style="animation-play-state:paused" ></path>


<circle cx="0" cy="0" r="7.575347326504402" fill="#9df871" transform="translate(793.4365234375 319.3421630859375)" style="animation-play-state:paused" ></circle>
<path id="path21" d="M 510.31816161560516 607.9256260634643
c 0 20.809921918893586 -5.091789405686728 5.977317997980072 -11.0691074036668 5.977317997980072
S 488.17994680827155 628.7355479823578 488.17994680827155 607.9256260634643
s 5.091789405686728 -5.977317997980072 11.0691074036668 -5.977317997980072
S 510.31816161560516 587.1157041445707 510.31816161560516 607.9256260634643
z" fill="none" stroke="none" style="animation-play-state:paused" ></path>


<circle cx="0" cy="0" r="6.888988602540027" fill="#ff708e" transform="translate(494.1751708984375 599.2656860351562)" style="animation-play-state:paused" ></circle>
<path id="path22" d="M 797.5435626667754 70.17051681256378
c 0 27.156177805474954 -6.644596697084296 7.800178731359827 -14.444775428444123 7.800178731359827
S 768.6540118098872 97.32669461803873 768.6540118098872 70.17051681256378
s 6.644596697084296 -7.800178731359827 14.444775428444123 -7.800178731359827
S 797.5435626667754 43.01433900708882 797.5435626667754 70.17051681256378
z" fill="none" stroke="none" style="animation-play-state:paused" ></path>


<circle cx="0" cy="0" r="5.323278280299599" fill="#51cacc" transform="translate(768.6585693359375 68.97786712646484)" style="animation-play-state:paused" ></circle>
<path id="path23" d="M 260.44901736315035 330.5783383885004
c 0 30.845443431544815 -7.547289350271603 8.859861411188405 -16.40715076146001 8.859861411188405
S 227.63471584023034 361.42378182004524 227.63471584023034 330.5783383885004
s 7.547289350271603 -8.859861411188405 16.40715076146001 -8.859861411188405
S 260.44901736315035 299.7328949569556 260.44901736315035 330.5783383885004
z" fill="none" stroke="none" style="animation-play-state:paused" ></path>


<circle cx="0" cy="0" r="6.909254982547447" fill="#de9dd6" transform="translate(229.20350646972656 315.5892639160156)" style="animation-play-state:paused" ></circle>
<path id="path24" d="M 1811.6983667584293 286.76682782245604
c 0 21.574342960734764 -5.278828596775527 6.196885744040837 -11.475714340816364 6.196885744040837
S 1788.7469380767964 308.3411707831908 1788.7469380767964 286.76682782245604
s 5.278828596775527 -6.196885744040837 11.475714340816364 -6.196885744040837
S 1811.6983667584293 265.19248486172125 1811.6983667584293 286.76682782245604
z" fill="none" stroke="none" style="animation-play-state:paused" ></path>


<circle cx="0" cy="0" r="5.88932852543287" fill="#de9dd6" transform="translate(1788.7601318359375 288.50360107421875)" style="animation-play-state:paused" ></circle>
<path id="path25" d="M 1214.8282092158752 56.20762170034245
c 0 27.88780006385173 -6.823610653921167 8.010325550255285 -14.833936204176453 8.010325550255285
S 1185.160336807522 84.09542176419419 1185.160336807522 56.20762170034245
s 6.823610653921167 -8.010325550255285 14.833936204176453 -8.010325550255285
S 1214.8282092158752 28.31982163649072 1214.8282092158752 56.20762170034245
z" fill="none" stroke="none" style="animation-play-state:paused" ></path>


<circle cx="0" cy="0" r="5.652940741717044" fill="#51cacc" transform="translate(1214.7572021484375 51.73921203613281)" style="animation-play-state:paused" ></circle>
<path id="path26" d="M 1576.1050701838865 438.61757591138905
c 0 34.042710114425304 -8.32959928331683 9.7782252456328 -18.107824528949628 9.7782252456328
S 1539.8894211259874 472.66028602581434 1539.8894211259874 438.61757591138905
s 8.32959928331683 -9.7782252456328 18.107824528949628 -9.7782252456328
S 1576.1050701838865 404.57486579696376 1576.1050701838865 438.61757591138905
z" fill="none" stroke="none" style="animation-play-state:paused" ></path>


<circle cx="0" cy="0" r="6.648048297419049" fill="#e0ff77" transform="translate(1539.960205078125 433.6377868652344)" style="animation-play-state:paused" ></circle>
<path id="path27" d="M 1764.3896701218289 60.02220969087446
c 0 35.26161897037602 -8.62784293956009 10.128337363831411 -18.756180303391503 10.128337363831411
S 1726.8773095150457 95.28382866125048 1726.8773095150457 60.02220969087446
s 8.62784293956009 -10.128337363831411 18.756180303391503 -10.128337363831411
S 1764.3896701218289 24.760590720498442 1764.3896701218289 60.02220969087446
z" fill="none" stroke="none" style="animation-play-state:paused" ></path>


<circle cx="0" cy="0" r="6.490182035041941" fill="#de9dd6" transform="translate(1758.8260498046875 78.31832885742188)" style="animation-play-state:paused" ></circle>
<path id="path28" d="M 325.24790515636784 205.50939604822457
c 0 23.166742579629222 -5.668458290760341 6.654277123936054 -12.322735414696396 6.654277123936054
S 300.602434326975 228.6761386278538 300.602434326975 205.50939604822457
s 5.668458290760341 -6.654277123936054 12.322735414696396 -6.654277123936054
S 325.24790515636784 182.34265346859536 325.24790515636784 205.50939604822457
z" fill="none" stroke="none" style="animation-play-state:paused" ></path>


<circle cx="0" cy="0" r="4.2693735920429035" fill="#9df871" transform="translate(319.8377990722656 194.7762451171875)" style="animation-play-state:paused" ></circle>
<path id="path29" d="M 1237.8132011794635 375.58199194069965
c 0 26.916231129811244 -6.585886340272963 7.73125787771174 -14.317144217984703 7.73125787771174
S 1209.1789127434943 402.4982230705109 1209.1789127434943 375.58199194069965
s 6.585886340272963 -7.73125787771174 14.317144217984703 -7.73125787771174
S 1237.8132011794635 348.6657608108884 1237.8132011794635 375.58199194069965
z" fill="none" stroke="none" style="animation-play-state:paused" ></path>


<circle cx="0" cy="0" r="5.36343869986902" fill="#ff708e" transform="translate(1210.2841796875 363.14263916015625)" style="animation-play-state:paused" ></circle></g></svg>