<?xml version="1.0"?>
<svg xmlns="http://www.w3.org/2000/svg" xmlns:xlink="http://www.w3.org/1999/xlink" xmlns:svgjs="http://svgjs.com/svgjs" version="1.1" width="512" height="512" x="0" y="0" viewBox="0 0 512 512" style="enable-background:new 0 0 512 512" xml:space="preserve" class=""><g transform="matrix(1,0,0,1,0,0)"><g xmlns="http://www.w3.org/2000/svg"><g id="Forms_4_"><g><g><g><g><g><path d="m451 135-105-30-30-105h-210c-24.853 0-45 20.147-45 45v422c0 24.853 20.147 45 45 45h300c24.853 0 45-20.147 45-45z" fill="#4bbd98" data-original="#734bbd" style="" class=""/></g></g></g></g></g><g><circle cx="136" cy="256" fill="#fff5f5" r="15" data-original="#fff5f5" style=""/></g><g><circle cx="136" cy="316" fill="#fff5f5" r="15" data-original="#fff5f5" style=""/></g><g><circle cx="136" cy="376" fill="#fff5f5" r="15" data-original="#fff5f5" style=""/></g></g><g id="Forms_1_"><g><g><path d="m451 135v332c0 24.853-20.147 45-45 45h-150v-512h60l30 105z" fill="#45a98d" data-original="#5f45a9" style="" class=""/></g></g></g><g><g><path d="m346 271h-150c-8.291 0-15-6.709-15-15s6.709-15 15-15h150c8.291 0 15 6.709 15 15s-6.709 15-15 15z" fill="#fff5f5" data-original="#fff5f5" style=""/></g></g><g><path d="m346 331h-150c-8.291 0-15-6.709-15-15s6.709-15 15-15h150c8.291 0 15 6.709 15 15s-6.709 15-15 15z" fill="#fff5f5" data-original="#fff5f5" style=""/></g><g><path d="m346 391h-150c-8.291 0-15-6.709-15-15s6.709-15 15-15h150c8.291 0 15 6.709 15 15s-6.709 15-15 15z" fill="#fff5f5" data-original="#fff5f5" style=""/></g><g fill="#e3e7ea"><path d="m256 391h90c8.291 0 15-6.709 15-15s-6.709-15-15-15h-90z" fill="#e3e7ea" data-original="#e3e7ea" style="" class=""/><path d="m256 331h90c8.291 0 15-6.709 15-15s-6.709-15-15-15h-90z" fill="#e3e7ea" data-original="#e3e7ea" style="" class=""/><path d="m256 271h90c8.291 0 15-6.709 15-15s-6.709-15-15-15h-90z" fill="#e3e7ea" data-original="#e3e7ea" style="" class=""/></g><path d="m451 135h-105c-16.5 0-30-13.5-30-30v-105c3.9 0 7.8 1.5 10.499 4.501l120 120c3.001 2.699 4.501 6.599 4.501 10.499z" fill="#7ed0b1" data-original="#9b7ed0" style="" class=""/></g></g></svg>
