<?xml version="1.0"?>
<svg xmlns="http://www.w3.org/2000/svg" xmlns:xlink="http://www.w3.org/1999/xlink" xmlns:svgjs="http://svgjs.com/svgjs" version="1.1" width="512" height="512" x="0" y="0" viewBox="0 0 511.999 511.999" style="enable-background:new 0 0 512 512" xml:space="preserve" class=""><g><g xmlns="http://www.w3.org/2000/svg"><g><path d="m501.877.721c-59.566-4.29-118.327 10.678-168.051 41.785l26.957 108.711 90.404-45.795 59.46-104.069z" fill="#ccdeff" data-original="#eeccff" style="" class=""/><path d="m510.647 1.353-149.864 149.863 108.711 26.957c31.106-49.723 46.074-108.485 41.784-168.051z" fill="#a0b9e5" data-original="#ee99ff" style="" class=""/><path d="m357.617 334.125-3.441-30.536-107.098 35.949-30.842 101.991 70.47 70.47 13.341-13.341c43.227-43.227 64.416-103.786 57.57-164.533z" fill="#8c6bd9" data-original="#2d0390" style="" class=""/><path d="m177.875 154.382c-60.748-6.846-121.307 14.344-164.534 57.57l-13.341 13.342 70.47 70.47 103.286-31.528 34.654-106.412z" fill="#8c6bd9" data-original="#5f05a7" style="" class=""/><g><g><path d="m3.829 362.724h76.283v30h-76.283z" fill="#f2d05c" transform="matrix(.707 -.707 .707 .707 -254.798 140.31)" data-original="#f2d05c" style="" class=""/></g><g><path d="m96.134 455.03h76.283v30h-76.283z" fill="#f79f5e" transform="matrix(.707 -.707 .707 .707 -293.033 232.616)" data-original="#f79f5e" style=""/></g></g><g><path d="m333.826 42.506c-17.713 11.081-34.289 24.191-49.331 39.233l-214.025 214.025 72.883 72.883 228.568-133.816 29.739-124.491z" fill="#8c6bd9" data-original="#ef0671" style="" class=""/><path d="m143.353 368.646 72.883 72.883 214.024-214.024c15.043-15.042 28.153-31.619 39.234-49.331l-67.834-67.834z" fill="#7954d1" data-original="#a20589" style="" class=""/></g><g><path d="m23.898 466.888 10.607 10.606 45.597-34.99 34.991-45.597-10.607-10.607z" fill="#f2d05c" data-original="#f2d05c" style="" class=""/><path d="m23.118 435.004h113.968v15h-113.968z" fill="#f79f5e" transform="matrix(.707 -.707 .707 .707 -289.436 186.247)" data-original="#f79f5e" style=""/></g></g><path d="m277.144 163.659c-19.661 19.661-19.66 51.536 0 71.197l53.398-17.799 17.799-53.398c-19.661-19.661-51.537-19.661-71.197 0z" fill="#ffffff" data-original="#063889" style="" class=""/><path d="m348.341 163.659-71.197 71.197c19.66 19.66 51.536 19.661 71.197 0 19.66-19.661 19.66-51.537 0-71.197z" fill="#ffffff" data-original="#04275a" style="" class=""/></g></g></svg>
